<mxfile host="app.diagrams.net" modified="2020-08-23T16:34:44.981Z" agent="5.0 (X11; Linux x86_64) AppleWebKit/537.36 (KHTML, like Gecko) Chrome/85.0.4183.69 Safari/537.36" etag="WPtAMGudDf3H3eQTvE_l" version="13.6.4" type="github">
  <diagram id="E6s0HOv1Aa1o53uXts_-" name="Page-1">
    <mxGraphModel dx="1544" dy="792" grid="1" gridSize="10" guides="1" tooltips="1" connect="1" arrows="1" fold="1" page="1" pageScale="1" pageWidth="850" pageHeight="1100" math="0" shadow="0">
      <root>
        <mxCell id="0" />
        <mxCell id="1" parent="0" />
        <mxCell id="63We0tcy4YD0tNSfpsTy-4" value="{(&#39;ibm&#39;, &#39;sap&#39;): 0.476, (&#39;ibm&#39;, &#39;orcl&#39;): 0.505, (&#39;ibm&#39;, &#39;msft&#39;): 0.447, (&#39;ibm&#39;, &#39;acn&#39;): 0.459, (&#39;sap&#39;, &#39;orcl&#39;): 0.522, (&#39;sap&#39;, &#39;msft&#39;): 0.455, (&#39;sap&#39;, &#39;acn&#39;): 0.414, (&#39;orcl&#39;, &#39;msft&#39;): 0.508, (&#39;orcl&#39;, &#39;acn&#39;): 0.456, (&#39;msft&#39;, &#39;acn&#39;): 0.439}" style="text;whiteSpace=wrap;html=1;" parent="1" vertex="1">
          <mxGeometry x="80" y="160" width="730" height="90" as="geometry" />
        </mxCell>
        <mxCell id="63We0tcy4YD0tNSfpsTy-9" value="Accenture" style="ellipse;whiteSpace=wrap;html=1;aspect=fixed;" parent="1" vertex="1">
          <mxGeometry x="-150" y="590" width="80" height="80" as="geometry" />
        </mxCell>
        <mxCell id="n5IDzBsflQ4T4mHAfqF0-2" value="" style="edgeStyle=orthogonalEdgeStyle;rounded=0;orthogonalLoop=1;jettySize=auto;html=1;" edge="1" parent="1" source="63We0tcy4YD0tNSfpsTy-17" target="n5IDzBsflQ4T4mHAfqF0-1">
          <mxGeometry relative="1" as="geometry" />
        </mxCell>
        <mxCell id="63We0tcy4YD0tNSfpsTy-17" value="Sunday" style="ellipse;whiteSpace=wrap;html=1;aspect=fixed;" parent="1" vertex="1">
          <mxGeometry x="-10" y="1010" width="80" height="80" as="geometry" />
        </mxCell>
        <mxCell id="63We0tcy4YD0tNSfpsTy-21" value="{(&#39;ibm&#39;, &#39;crm&#39;): 0.301, (&#39;ibm&#39;, &#39;sap&#39;): 0.476, (&#39;ibm&#39;, &#39;orcl&#39;): 0.505, (&#39;ibm&#39;, &#39;msft&#39;): 0.447, (&#39;ibm&#39;, &#39;acn&#39;): 0.459, (&#39;ibm&#39;, &#39;csco&#39;): 0.489, (&#39;crm&#39;, &#39;sap&#39;): 0.378, (&#39;crm&#39;, &#39;orcl&#39;): 0.399, (&#39;crm&#39;, &#39;msft&#39;): 0.389, (&#39;crm&#39;, &#39;acn&#39;): 0.357, (&#39;crm&#39;, &#39;csco&#39;): 0.33, (&#39;sap&#39;, &#39;orcl&#39;): 0.522, (&#39;sap&#39;, &#39;msft&#39;): 0.455, (&#39;sap&#39;, &#39;acn&#39;): 0.414, (&#39;sap&#39;, &#39;csco&#39;): 0.494, (&#39;orcl&#39;, &#39;msft&#39;): 0.508, (&#39;orcl&#39;, &#39;acn&#39;): 0.456, (&#39;orcl&#39;, &#39;csco&#39;): 0.515, (&#39;msft&#39;, &#39;acn&#39;): 0.439, (&#39;msft&#39;, &#39;csco&#39;): 0.512, (&#39;acn&#39;, &#39;csco&#39;): 0.404}" style="text;whiteSpace=wrap;html=1;" parent="1" vertex="1">
          <mxGeometry x="-70" y="210" width="130" height="90" as="geometry" />
        </mxCell>
        <mxCell id="63We0tcy4YD0tNSfpsTy-27" value="{(&#39;ibm&#39;, &#39;crm&#39;): 0.301, (&#39;ibm&#39;, &#39;sap&#39;): 0.476, (&#39;ibm&#39;, &#39;orcl&#39;): 0.505, (&#39;ibm&#39;, &#39;msft&#39;): 0.447, (&#39;ibm&#39;, &#39;acn&#39;): 0.459, (&#39;ibm&#39;, &#39;csco&#39;): 0.489, (&#39;ibm&#39;, &#39;intc&#39;): 0.473, (&#39;crm&#39;, &#39;sap&#39;): 0.378, (&#39;crm&#39;, &#39;orcl&#39;): 0.399, (&#39;crm&#39;, &#39;msft&#39;): 0.389, (&#39;crm&#39;, &#39;acn&#39;): 0.357, (&#39;crm&#39;, &#39;csco&#39;): 0.33, (&#39;crm&#39;, &#39;intc&#39;): 0.308, (&#39;sap&#39;, &#39;orcl&#39;): 0.522, (&#39;sap&#39;, &#39;msft&#39;): 0.455, (&#39;sap&#39;, &#39;acn&#39;): 0.414, (&#39;sap&#39;, &#39;csco&#39;): 0.494, (&#39;sap&#39;, &#39;intc&#39;): 0.474, (&#39;orcl&#39;, &#39;msft&#39;): 0.508, (&#39;orcl&#39;, &#39;acn&#39;): 0.456, (&#39;orcl&#39;, &#39;csco&#39;): 0.515, (&#39;orcl&#39;, &#39;intc&#39;): 0.496, (&#39;msft&#39;, &#39;acn&#39;): 0.439, (&#39;msft&#39;, &#39;csco&#39;): 0.512, (&#39;msft&#39;, &#39;intc&#39;): 0.503, (&#39;acn&#39;, &#39;csco&#39;): 0.404, (&#39;acn&#39;, &#39;intc&#39;): 0.391, (&#39;csco&#39;, &#39;intc&#39;): 0.561}" style="text;whiteSpace=wrap;html=1;" parent="1" vertex="1">
          <mxGeometry x="670" y="230" width="120" height="410" as="geometry" />
        </mxCell>
        <mxCell id="63We0tcy4YD0tNSfpsTy-31" value="{(&#39;ibm&#39;, &#39;orcl&#39;): 0.425, (&#39;ibm&#39;, &#39;msft&#39;): 0.438, (&#39;ibm&#39;, &#39;csco&#39;): 0.387, (&#39;ibm&#39;, &#39;intc&#39;): 0.423, (&#39;orcl&#39;, &#39;msft&#39;): 0.417, (&#39;orcl&#39;, &#39;csco&#39;): 0.561, (&#39;orcl&#39;, &#39;intc&#39;): 0.503, (&#39;msft&#39;, &#39;csco&#39;): 0.45, (&#39;msft&#39;, &#39;intc&#39;): 0.507, (&#39;csco&#39;, &#39;intc&#39;): 0.616}" style="text;whiteSpace=wrap;html=1;" parent="1" vertex="1">
          <mxGeometry x="90" y="270" width="110" height="60" as="geometry" />
        </mxCell>
        <mxCell id="63We0tcy4YD0tNSfpsTy-33" value="{(&#39;ibm&#39;, &#39;orcl&#39;): 0.505, (&#39;ibm&#39;, &#39;sap&#39;): 0.476, (&#39;ibm&#39;, &#39;csco&#39;): 0.489, (&#39;ibm&#39;, &#39;intc&#39;): 0.473, (&#39;orcl&#39;, &#39;sap&#39;): 0.522, (&#39;orcl&#39;, &#39;csco&#39;): 0.515, (&#39;orcl&#39;, &#39;intc&#39;): 0.496, (&#39;sap&#39;, &#39;csco&#39;): 0.494, (&#39;sap&#39;, &#39;intc&#39;): 0.474, (&#39;csco&#39;, &#39;intc&#39;): 0.561}" style="text;whiteSpace=wrap;html=1;" parent="1" vertex="1">
          <mxGeometry x="580" y="700" width="110" height="60" as="geometry" />
        </mxCell>
        <mxCell id="n5IDzBsflQ4T4mHAfqF0-4" value="" style="edgeStyle=orthogonalEdgeStyle;rounded=0;orthogonalLoop=1;jettySize=auto;html=1;" edge="1" parent="1" source="n5IDzBsflQ4T4mHAfqF0-1" target="n5IDzBsflQ4T4mHAfqF0-3">
          <mxGeometry relative="1" as="geometry" />
        </mxCell>
        <mxCell id="n5IDzBsflQ4T4mHAfqF0-1" value="Monday" style="ellipse;whiteSpace=wrap;html=1;aspect=fixed;" vertex="1" parent="1">
          <mxGeometry x="150" y="1010" width="80" height="80" as="geometry" />
        </mxCell>
        <mxCell id="n5IDzBsflQ4T4mHAfqF0-6" value="" style="edgeStyle=orthogonalEdgeStyle;rounded=0;orthogonalLoop=1;jettySize=auto;html=1;" edge="1" parent="1" source="n5IDzBsflQ4T4mHAfqF0-3" target="n5IDzBsflQ4T4mHAfqF0-5">
          <mxGeometry relative="1" as="geometry" />
        </mxCell>
        <mxCell id="n5IDzBsflQ4T4mHAfqF0-3" value="Tuesday" style="ellipse;whiteSpace=wrap;html=1;aspect=fixed;" vertex="1" parent="1">
          <mxGeometry x="310" y="1010" width="80" height="80" as="geometry" />
        </mxCell>
        <mxCell id="n5IDzBsflQ4T4mHAfqF0-8" value="" style="edgeStyle=orthogonalEdgeStyle;rounded=0;orthogonalLoop=1;jettySize=auto;html=1;" edge="1" parent="1" source="n5IDzBsflQ4T4mHAfqF0-5" target="n5IDzBsflQ4T4mHAfqF0-7">
          <mxGeometry relative="1" as="geometry" />
        </mxCell>
        <mxCell id="n5IDzBsflQ4T4mHAfqF0-5" value="Wednesday" style="ellipse;whiteSpace=wrap;html=1;aspect=fixed;" vertex="1" parent="1">
          <mxGeometry x="470" y="1010" width="80" height="80" as="geometry" />
        </mxCell>
        <mxCell id="n5IDzBsflQ4T4mHAfqF0-7" value="Thursday" style="ellipse;whiteSpace=wrap;html=1;aspect=fixed;" vertex="1" parent="1">
          <mxGeometry x="630" y="1010" width="80" height="80" as="geometry" />
        </mxCell>
        <mxCell id="n5IDzBsflQ4T4mHAfqF0-13" value="" style="group" vertex="1" connectable="0" parent="1">
          <mxGeometry x="240" y="370" width="380" height="230" as="geometry" />
        </mxCell>
        <mxCell id="63We0tcy4YD0tNSfpsTy-1" value="IBM" style="ellipse;whiteSpace=wrap;html=1;aspect=fixed;" parent="n5IDzBsflQ4T4mHAfqF0-13" vertex="1">
          <mxGeometry x="140" width="80" height="80" as="geometry" />
        </mxCell>
        <mxCell id="63We0tcy4YD0tNSfpsTy-2" value="SAP" style="ellipse;whiteSpace=wrap;html=1;aspect=fixed;" parent="n5IDzBsflQ4T4mHAfqF0-13" vertex="1">
          <mxGeometry x="300" y="150" width="80" height="80" as="geometry" />
        </mxCell>
        <mxCell id="63We0tcy4YD0tNSfpsTy-11" value="0.522" style="edgeStyle=orthogonalEdgeStyle;rounded=0;orthogonalLoop=1;jettySize=auto;html=1;exitX=1;exitY=0.5;exitDx=0;exitDy=0;endArrow=none;endFill=0;" parent="n5IDzBsflQ4T4mHAfqF0-13" source="63We0tcy4YD0tNSfpsTy-5" target="63We0tcy4YD0tNSfpsTy-2" edge="1">
          <mxGeometry relative="1" as="geometry" />
        </mxCell>
        <mxCell id="63We0tcy4YD0tNSfpsTy-5" value="Oracle" style="ellipse;whiteSpace=wrap;html=1;aspect=fixed;" parent="n5IDzBsflQ4T4mHAfqF0-13" vertex="1">
          <mxGeometry x="140" y="150" width="80" height="80" as="geometry" />
        </mxCell>
        <mxCell id="63We0tcy4YD0tNSfpsTy-6" value="0.505" style="edgeStyle=orthogonalEdgeStyle;rounded=0;orthogonalLoop=1;jettySize=auto;html=1;endArrow=none;endFill=0;" parent="n5IDzBsflQ4T4mHAfqF0-13" source="63We0tcy4YD0tNSfpsTy-1" target="63We0tcy4YD0tNSfpsTy-5" edge="1">
          <mxGeometry relative="1" as="geometry" />
        </mxCell>
        <mxCell id="63We0tcy4YD0tNSfpsTy-23" value="0.515" style="edgeStyle=orthogonalEdgeStyle;rounded=0;orthogonalLoop=1;jettySize=auto;html=1;exitX=1;exitY=0.5;exitDx=0;exitDy=0;entryX=0;entryY=0.5;entryDx=0;entryDy=0;endArrow=none;endFill=0;" parent="n5IDzBsflQ4T4mHAfqF0-13" source="63We0tcy4YD0tNSfpsTy-22" target="63We0tcy4YD0tNSfpsTy-5" edge="1">
          <mxGeometry relative="1" as="geometry" />
        </mxCell>
        <mxCell id="63We0tcy4YD0tNSfpsTy-22" value="Cisco" style="ellipse;whiteSpace=wrap;html=1;aspect=fixed;" parent="n5IDzBsflQ4T4mHAfqF0-13" vertex="1">
          <mxGeometry y="150" width="80" height="80" as="geometry" />
        </mxCell>
        <mxCell id="63We0tcy4YD0tNSfpsTy-32" value="0.561" style="edgeStyle=orthogonalEdgeStyle;rounded=0;orthogonalLoop=1;jettySize=auto;html=1;entryX=0.5;entryY=0;entryDx=0;entryDy=0;endArrow=none;endFill=0;" parent="n5IDzBsflQ4T4mHAfqF0-13" source="63We0tcy4YD0tNSfpsTy-28" target="63We0tcy4YD0tNSfpsTy-22" edge="1">
          <mxGeometry relative="1" as="geometry" />
        </mxCell>
        <mxCell id="63We0tcy4YD0tNSfpsTy-28" value="Intel" style="ellipse;whiteSpace=wrap;html=1;aspect=fixed;" parent="n5IDzBsflQ4T4mHAfqF0-13" vertex="1">
          <mxGeometry width="80" height="80" as="geometry" />
        </mxCell>
      </root>
    </mxGraphModel>
  </diagram>
</mxfile>
